<?xml version="1.0" encoding="UTF-8" standalone="no"?>
<svg
   xmlns:dc="http://purl.org/dc/elements/1.1/"
   xmlns:cc="http://creativecommons.org/ns#"
   xmlns:rdf="http://www.w3.org/1999/02/22-rdf-syntax-ns#"
   xmlns:svg="http://www.w3.org/2000/svg"
   xmlns="http://www.w3.org/2000/svg"
   xmlns:xlink="http://www.w3.org/1999/xlink"
   xmlns:sodipodi="http://sodipodi.sourceforge.net/DTD/sodipodi-0.dtd"
   xmlns:inkscape="http://www.inkscape.org/namespaces/inkscape"
   width="960pt"
   height="540pt"
   viewBox="0 0 960 540"
   version="1.1"
   id="svg1109"
   sodipodi:docname="bannerImage7-rough-edit2.svg"
   inkscape:version="0.92.4 (5da689c313, 2019-01-14)">
  <metadata
     id="metadata1115">
    <rdf:RDF>
      <cc:Work
         rdf:about="">
        <dc:format>image/svg+xml</dc:format>
        <dc:type
           rdf:resource="http://purl.org/dc/dcmitype/StillImage" />
        <dc:title></dc:title>
      </cc:Work>
    </rdf:RDF>
  </metadata>
  <defs
     id="defs1113">
    <linearGradient
       inkscape:collect="always"
       xlink:href="#linearGradient2746"
       id="linearGradient2748"
       x1="210.74361"
       y1="410.10309"
       x2="690.76581"
       y2="410.10309"
       gradientUnits="userSpaceOnUse"
       gradientTransform="matrix(0.32886715,0,0,2.9435356,255.52605,-1658.562)" />
    <linearGradient
       inkscape:collect="always"
       id="linearGradient2746">
      <stop
         style="stop-color:#c2438d;stop-opacity:0.99033815"
         offset="0"
         id="stop2742" />
      <stop
         style="stop-color:#622c71;stop-opacity:1"
         offset="1"
         id="stop2744" />
    </linearGradient>
    <linearGradient
       inkscape:collect="always"
       xlink:href="#linearGradient2755"
       id="linearGradient2694"
       gradientUnits="userSpaceOnUse"
       gradientTransform="matrix(0.2561569,0,0,3.4058436,-0.27910187,-949.07468)"
       x1="0.81225049"
       y1="137.71353"
       x2="960.49988"
       y2="137.71353" />
    <linearGradient
       id="linearGradient2755"
       inkscape:collect="always">
      <stop
         id="stop2751"
         offset="0"
         style="stop-color:#7f3279;stop-opacity:1" />
      <stop
         style="stop-color:#ef519c;stop-opacity:1"
         offset="0.49807778"
         id="stop2757" />
      <stop
         id="stop2753"
         offset="1"
         style="stop-color:#f8a9a1;stop-opacity:1" />
    </linearGradient>
    <linearGradient
       inkscape:collect="always"
       xlink:href="#linearGradient2718"
       id="linearGradient2676"
       x1="-1.2350338"
       y1="-479.82086"
       x2="261.05325"
       y2="-479.82086"
       gradientUnits="userSpaceOnUse"
       gradientTransform="matrix(0.93972907,0,0,0.99957955,0.76489731,-0.42477879)"
       spreadMethod="repeat" />
    <linearGradient
       inkscape:collect="always"
       id="linearGradient2718">
      <stop
         style="stop-color:#7f3279;stop-opacity:1"
         offset="0"
         id="stop2714" />
      <stop
         style="stop-color:#f8a9a1;stop-opacity:1"
         offset="1"
         id="stop2716" />
    </linearGradient>
  </defs>
  <sodipodi:namedview
     pagecolor="#ffffff"
     bordercolor="#666666"
     borderopacity="1"
     objecttolerance="10"
     gridtolerance="10"
     guidetolerance="10"
     inkscape:pageopacity="0"
     inkscape:pageshadow="2"
     inkscape:window-width="1536"
     inkscape:window-height="811"
     id="namedview1111"
     showgrid="false"
     inkscape:zoom="0.64"
     inkscape:cx="537.79781"
     inkscape:cy="280.66948"
     inkscape:window-x="-8"
     inkscape:window-y="-8"
     inkscape:window-maximized="1"
     inkscape:current-layer="layer2" />
  <g
     inkscape:groupmode="layer"
     id="layer2"
     inkscape:label="Layer 2">
    <rect
       style="opacity:0.99199997;fill:url(#linearGradient2748);fill-opacity:1;stroke:#382566;stroke-width:0.70555758;stroke-miterlimit:4;stroke-dasharray:none;stroke-opacity:1"
       id="rect2740"
       width="157.62772"
       height="475.79086"
       x="324.95059"
       y="-689.30444"
       transform="matrix(0,1,-0.99993933,-0.01101504,0,0)" />
    <rect
       style="opacity:1;fill:url(#linearGradient2694);fill-opacity:1;stroke:url(#linearGradient2676);stroke-width:0.93408787;stroke-miterlimit:4;stroke-dasharray:none;stroke-opacity:1"
       id="rect2585"
       width="245.57451"
       height="960.08331"
       x="0.05700938"
       y="-960.08551"
       transform="rotate(90)" />
  </g>
  <g
     inkscape:groupmode="layer"
     id="layer1"
     inkscape:label="Layer 1">
    <g
       style=""
       id="#92367fff">
      <path
         d="m 271.54,358.59 c 19.74,-2.39 39.52,-5.27 59.46,-4.44 8.47,0.08 16.96,-0.37 25.4,0.65 -4.29,1.14 -8.77,2.35 -12.22,5.28 -5.22,4.14 -9.66,9.32 -15.57,12.54 -6.49,3.64 -14.05,4.28 -21.18,5.89 -6.01,1.11 -11.84,3.05 -17.85,4.11 -6.23,1.13 -13.11891,-2.31945 -19.32891,-1.92945 -7.45293,1.22408 -5.09691,2.78426 -15.65287,6.11336 -11.14093,3.51358 -18.39376,10.59119 -29.26209,13.88537 -28.72326,8.70601 -51.13985,8.51934 -0.52613,-22.16928 7.29,-5.49 15.62,-9.46 24.19,-12.54 7.44,-2.65 14.61,-6.37 22.54,-7.39 z"
         id="path971"
         inkscape:connector-curvature="0"
         style="opacity:1;fill:#92367f;stroke:#92367f;stroke-width:0.09375"
         sodipodi:nodetypes="ccccccccssccc" />
    </g>
    <g
       style=""
       id="#8f357dff">
      <path
         fill="#8f357d"
         stroke="#8f357d"
         stroke-width="0.09375"
         opacity="1.00"
         d=" M 933.45 146.43 C 941.78 140.04 951.39 135.60 960.00 129.61 L 960.00 209.55 C 952.61 211.59 945.13 213.33 937.86 215.81 C 931.22 218.12 923.85 218.78 917.99 222.95 C 905.69 231.64 893.50 240.49 881.35 249.39 C 878.89 251.03 876.25 253.17 873.10 252.76 C 864.57 251.78 856.30 249.28 847.82 248.04 C 842.96 247.35 838.90 250.64 834.87 252.78 C 829.03 255.93 823.29 259.28 817.45 262.42 C 813.30 264.68 808.48 263.36 804.08 262.84 C 793.00 261.11 781.73 260.70 770.72 258.46 C 775.89 258.07 780.96 256.78 785.73 254.75 C 795.09 250.82 804.89 248.09 814.31 244.30 C 820.69 241.73 826.28 237.65 832.16 234.14 C 842.67 227.65 853.27 221.33 863.69 214.70 C 875.05 208.06 885.30 199.74 895.57 191.57 C 902.89 184.47 908.69 175.97 915.19 168.14 C 916.24 166.91 917.34 165.73 918.44 164.53 C 923.71 158.72 928.42 152.43 933.45 146.43 Z"
         id="path989" />
    </g>
    <g
       style=""
       id="#a33c85ff">
      <path
         fill="#a33c85"
         stroke="#a33c85"
         stroke-width="0.09375"
         opacity="1.00"
         d=" M 890.33 175.35 C 898.62 172.95 906.71 169.84 915.19 168.14 C 908.69 175.97 902.89 184.47 895.57 191.57 C 885.30 199.74 875.05 208.06 863.69 214.70 C 853.27 221.33 842.67 227.65 832.16 234.14 C 826.28 237.65 820.69 241.73 814.31 244.30 C 804.89 248.09 795.09 250.82 785.73 254.75 C 780.96 256.78 775.89 258.07 770.72 258.46 C 758.94 256.73 747.12 255.19 735.61 252.04 C 742.26 246.92 749.73 242.70 755.54 236.57 C 759.80 230.38 761.50 222.89 764.39 216.03 C 767.76 211.29 772.53 207.85 777.07 204.31 C 780.77 206.00 783.80 208.74 786.30 211.91 C 789.54 209.73 793.07 207.65 795.27 204.31 C 797.51 201.09 798.80 197.24 801.45 194.31 C 803.28 193.42 805.36 193.30 807.36 192.99 C 810.79 192.89 813.99 191.58 817.04 190.10 C 820.41 191.99 823.74 193.98 827.05 196.00 C 832.48 191.13 838.07 186.23 841.98 180.00 C 843.64 177.72 845.03 174.77 847.97 173.93 C 852.47 172.59 857.13 171.36 861.86 171.27 C 865.63 172.25 868.01 176.25 872.02 176.73 C 878.13 177.30 884.42 177.12 890.33 175.35 Z"
         id="path998" />
      <path
         fill="#a33c85"
         stroke="#a33c85"
         stroke-width="0.09375"
         opacity="1.00"
         d=" M 0.00 216.90 C 4.14 219.31 8.74 220.77 12.88 223.19 C 17.40 225.83 20.74 230.08 25.37 232.57 C 29.21 234.65 33.43 235.88 37.45 237.54 C 44.25 240.19 50.19 244.61 57.02 247.20 C 51.54 249.43 45.52 252.14 39.51 250.41 C 34.03 248.84 28.70 246.21 22.88 246.28 C 18.39 246.34 14.46 249.02 10.05 249.41 C 6.34 248.07 3.21 245.52 0.00 243.29 L 0.00 216.90 Z"
         id="path1000" />
      <path
         fill="#a33c85"
         stroke="#a33c85"
         stroke-width="0.09375"
         opacity="1.00"
         d=" M 216.05 241.24 C 223.08 236.01 229.92 230.15 238.28 227.14 C 241.99 225.84 246.02 226.73 249.55 228.19 C 258.54 232.28 266.76 237.82 275.57 242.26 C 279.28 244.44 283.02 246.59 286.92 248.41 C 305.00 257.06 322.79 266.29 340.65 275.37 C 349.49 280.18 356.69 287.36 364.88 293.11 C 370.03 296.69 376.17 298.59 382.35 299.36 C 378.37 300.01 374.22 300.82 370.25 299.67 C 366.44 298.53 363.25 296.06 359.85 294.11 C 353.88 290.44 346.71 289.74 339.89 289.10 C 331.21 288.31 324.47 295.37 316.04 295.97 C 310.07 296.47 304.06 295.37 298.12 296.23 C 293.48 296.88 289.59 299.69 285.24 301.20 C 281.67 302.44 277.88 301.37 274.28 300.84 C 264.02 298.95 253.61 297.88 243.45 295.50 C 234.86 293.49 226.48 288.46 217.39 290.48 C 209.57 292.14 201.65 293.30 193.82 294.95 C 181.71 286.94 169.98 278.35 157.74 270.55 C 166.45 266.39 175.01 261.94 183.64 257.61 C 187.69 255.48 192.33 255.31 196.74 254.46 C 200.28 253.80 203.09 251.39 205.85 249.25 C 209.19 246.51 212.57 243.80 216.05 241.24 Z"
         id="path1002" />
      <path
         style="opacity:1;fill:#a33c85;stroke:#a33c85;stroke-width:0.125"
         d="m 893.24609,335.64062 c -4.9275,0.002 -9.84007,1.82 -14.58007,3 -9.57334,2.76 -19.76029,3.86602 -28.62696,8.66602 -8.34666,4.16 -15.93195,10.22649 -25.25195,12.14648 -12.26667,2.73334 -25.42617,2.5998 -36.82617,8.45313 -8.30667,4.13333 -16.45446,8.58789 -24.81446,12.58789 -7.92,3.36 -16.79906,2.13289 -25.03906,4.21289 -30.41333,6.44 -61.02687,11.89224 -91.54687,17.87891 -16.24,3.28 -32.87964,2.25403 -49.29297,3.7207 -4.6,0.33333 -9.21479,0.45297 -13.82813,0.29297 14.93334,5.52 30.46685,10.06794 43.85352,18.97461 -13.09333,6.53333 -28.15966,4.14643 -41.98633,7.75976 -13,2.72 -25.62622,9.06638 -39.21289,7.37305 -10.58667,-1.09333 -21.21284,-0.49362 -31.82617,-0.62695 1.88,1.76 3.66666,3.73359 6,4.93359 4.30666,-0.42666 8.37252,-2.0539 12.50586,-3.2539 4.74666,4.6 10.54643,9.98721 17.75976,8.56054 6.16,-1.77333 11.54724,-6.28067 18.25391,-6.02734 7.29333,-0.78667 11.58641,6.2007 16.06641,10.7207 4.90666,3.54667 10.17244,6.6794 14.42578,11.05274 3.34666,3.36 5.8806,7.4394 8.94726,11.05273 5.21744,6.44194 14.19403,9.152 17.55469,17.18555 2.64504,2.59172 5.14131,2.40666 7.41797,-0.0645 2,-6.98666 5.93458,-13.18692 10.28125,-18.93359 0.94667,-1.04 1.83937,-2.46703 3.35937,-2.70703 4.66667,1.42667 8.20021,6.82773 13.54688,5.42773 8.21333,-1.44 11.18693,-10.46645 16.93359,-15.45312 4.09334,-4.58667 8.41227,-8.9468 12.57227,-13.4668 -5.04,-1.58666 -10.07917,-3.30669 -14.8125,-5.69336 -4.32,-2.17333 -8.09326,-5.56088 -12.91992,-6.57422 -12.68,-2.58666 -25.69287,-1.45244 -38.51954,-2.42578 9.77334,-6.45333 19.90586,-13.00021 31.50586,-15.54687 5.33334,-1.24 11.0398,-3.42724 16.45313,-1.25391 15.14667,6.02667 32.21396,4.33263 47.64062,0.2793 12.76,-3.22667 25.75896,-5.57344 38.26563,-9.77344 7.09333,-2.22667 14.16091,-4.55977 21.26758,-6.75976 8.69333,-2.85334 17.73294,0.20026 26.59961,-0.0664 9.12,0.12 17.68031,-3.30576 26.32031,-5.73242 15.29333,-4.4 30.64068,-8.6143 46.02734,-12.6543 7.46667,-6.48 15.99982,-11.49206 24.14649,-17.02539 10.26666,-6.68 19.98593,-14.46677 31.58593,-18.77344 -11.94666,-2.97333 -23.43929,-7.45344 -35.27929,-10.77344 -1.64,-0.49333 -3.28524,-0.69419 -4.92774,-0.69336 z"
         transform="scale(0.75)"
         id="path1004"
         inkscape:connector-curvature="0"
         sodipodi:nodetypes="ccccccccccccccccccccccccccccccccccccccccccc" />
    </g>
    <g
       style=""
       id="#bb418cff">
      <path
         fill="#bb418c"
         stroke="#bb418c"
         stroke-width="0.09375"
         opacity="1.00"
         d=" M 0.00 189.21 C 4.18 189.06 8.40 188.27 12.57 188.83 C 16.77 190.33 20.04 193.58 23.71 196.02 C 25.79 197.38 27.81 199.08 30.30 199.57 C 34.51 199.92 38.82 198.74 42.94 200.03 C 52.62 202.90 61.83 207.07 71.16 210.88 C 75.41 212.61 79.17 215.27 82.78 218.05 C 90.89 223.74 98.17 231.06 107.80 234.15 C 111.92 236.00 115.77 238.46 120.06 239.91 C 125.74 241.77 131.61 237.84 137.29 239.73 C 144.94 242.64 151.60 247.80 159.41 250.31 C 168.66 251.93 176.08 244.89 184.45 242.45 C 192.29 240.80 199.44 245.38 205.85 249.25 C 203.09 251.39 200.28 253.80 196.74 254.46 C 192.33 255.31 187.69 255.48 183.64 257.61 C 175.01 261.94 166.45 266.39 157.74 270.55 C 154.01 268.47 150.25 266.44 146.47 264.45 C 140.76 261.30 134.03 262.03 127.77 261.39 C 119.66 261.03 111.45 259.14 103.38 260.88 C 94.24 255.13 84.41 250.50 74.27 246.81 C 68.71 244.68 62.37 244.18 57.02 247.20 C 50.19 244.61 44.25 240.19 37.45 237.54 C 33.43 235.88 29.21 234.65 25.37 232.57 C 20.74 230.08 17.40 225.83 12.88 223.19 C 8.74 220.77 4.14 219.31 0.00 216.90 L 0.00 189.21 Z"
         id="path1007" />
      <path
         fill="#bb418c"
         stroke="#bb418c"
         stroke-width="0.09375"
         opacity="1.00"
         d=" M 709.64 212.17 C 712.78 208.82 715.77 203.15 721.22 204.53 C 730.86 204.89 741.45 208.25 746.58 217.05 C 749.81 216.17 752.97 214.99 756.27 214.36 C 759.09 213.83 761.77 215.20 764.39 216.03 C 761.50 222.89 759.80 230.38 755.54 236.57 C 749.73 242.70 742.26 246.92 735.61 252.04 C 730.69 251.05 725.35 249.15 720.52 251.48 C 713.70 254.41 706.95 257.50 700.09 260.33 C 691.13 258.10 682.51 254.74 673.63 252.25 C 668.71 250.77 663.74 252.80 659.00 253.98 C 651.82 256.05 644.18 256.88 637.53 260.48 C 631.27 263.60 625.58 268.15 618.59 269.59 C 609.39 271.64 599.52 271.54 590.97 275.93 C 584.74 279.03 578.63 282.37 572.36 285.37 C 566.42 287.89 559.76 286.97 553.58 288.53 C 530.77 293.36 507.81 297.45 484.92 301.94 C 472.74 304.40 460.26 303.63 447.95 304.73 C 444.50 304.98 441.04 305.07 437.58 304.95 L 436.59 304.90 C 444.76 298.66 455.51 301.09 465.01 300.76 C 474.66 301.14 483.74 297.42 493.15 296.00 C 498.59 294.97 504.13 294.92 509.63 294.36 C 517.91 293.57 523.78 286.62 531.74 284.78 C 536.55 283.40 541.44 284.98 546.25 285.47 C 550.17 285.92 553.66 283.67 557.01 281.98 C 562.22 278.99 568.01 276.67 572.23 272.24 C 574.26 270.27 576.04 267.93 578.57 266.55 C 581.29 265.35 584.34 265.39 587.27 265.17 C 591.35 265.33 595.22 263.91 598.50 261.54 C 606.26 256.17 616.10 256.10 624.58 252.55 C 628.04 249.40 629.78 244.54 634.06 242.16 C 638.72 239.20 643.04 235.75 647.56 232.60 C 651.99 229.47 657.66 231.53 662.63 230.53 C 665.32 228.70 667.37 225.92 670.56 224.83 C 675.41 223.48 678.36 218.92 682.98 217.18 C 685.99 218.23 688.50 220.27 691.14 222.00 C 695.11 220.61 699.18 219.53 703.12 218.03 C 705.99 217.02 707.75 214.39 709.64 212.17 Z"
         id="path1009" />
    </g>
    <g
       style=""
       id="#dc4b95ff">
      <path
         fill="#dc4b95"
         stroke="#dc4b95"
         stroke-width="0.09375"
         opacity="1.00"
         d=" M 451.25 204.25 C 455.15 201.89 458.24 198.45 462.07 196.01 C 467.66 199.34 469.90 206.42 474.32 211.10 C 478.13 211.44 480.52 206.84 484.44 207.16 C 487.85 206.88 490.45 209.38 492.42 211.84 C 496.25 217.25 500.63 222.21 505.26 226.94 C 507.69 229.76 509.19 234.09 513.16 235.07 C 515.82 234.86 518.09 233.13 520.72 232.69 C 522.47 232.99 524.10 233.73 525.77 234.34 C 531.10 236.54 537.01 237.22 541.95 240.37 C 546.38 238.64 550.90 240.16 554.85 242.33 C 560.32 244.89 565.46 248.08 570.31 251.67 C 576.12 255.96 582.10 260.09 587.27 265.17 C 584.34 265.39 581.29 265.35 578.57 266.55 C 576.04 267.93 574.26 270.27 572.23 272.24 C 568.01 276.67 562.22 278.99 557.01 281.98 C 553.66 283.67 550.17 285.92 546.25 285.47 C 541.44 284.98 536.55 283.40 531.74 284.78 C 523.78 286.62 517.91 293.57 509.63 294.36 C 504.13 294.92 498.59 294.97 493.15 296.00 C 483.74 297.42 474.66 301.14 465.01 300.76 C 455.51 301.09 444.76 298.66 436.59 304.90 C 427.56 304.84 418.56 304.06 409.56 303.40 C 404.98 303.09 400.81 301.09 396.65 299.35 C 392.75 297.59 388.40 298.43 384.35 299.04 C 379.89 294.25 374.86 289.65 368.60 287.40 C 364.54 285.74 359.99 285.16 356.34 282.62 C 352.12 278.99 350.60 273.18 346.46 269.49 C 342.71 268.37 338.69 269.07 334.93 268.04 C 332.57 266.45 332.04 263.30 330.91 260.86 C 337.69 260.53 343.74 257.28 350.00 255.01 C 353.14 253.96 355.69 251.81 358.16 249.70 C 359.68 249.91 361.19 250.21 362.73 250.20 C 365.23 248.64 365.90 245.48 366.93 242.93 C 367.91 240.78 368.06 237.43 370.98 237.12 C 375.19 236.15 379.31 234.65 382.50 231.62 C 385.54 232.64 388.56 233.68 391.62 234.67 C 394.68 231.21 398.57 228.67 402.89 227.05 C 408.71 229.81 414.69 234.23 421.50 232.34 C 424.87 230.62 427.15 227.42 429.78 224.80 C 432.84 221.37 436.70 218.83 440.17 215.85 C 443.84 211.96 446.57 207.10 451.25 204.25 Z"
         id="path1015" />
    </g>
    <g
       style=""
       id="#7a3178ff">
      <path
         fill="#7a3178"
         stroke="#7a3178"
         stroke-width="0.09375"
         opacity="1.00"
         d=" M 937.86 215.81 C 945.13 213.33 952.61 211.59 960.00 209.55 L 960.00 278.66 C 957.79 280.92 955.47 283.11 952.77 284.77 C 948.65 287.27 943.01 284.92 939.27 288.27 C 934.62 291.88 931.02 296.87 925.80 299.72 C 917.60 299.98 909.75 294.92 901.54 296.69 C 892.82 300.22 884.86 305.39 876.36 309.41 C 867.05 314.01 857.41 317.86 847.86 321.90 C 843.63 323.67 839.53 325.78 835.16 327.17 C 826.27 329.98 816.54 326.12 807.85 329.87 C 799.47 333.54 791.18 337.43 782.71 340.85 C 778.39 342.86 774.83 337.67 770.46 338.58 C 764.41 339.71 758.37 341.01 752.40 342.50 C 743.46 345.38 736.69 352.40 728.31 356.38 C 722.80 358.63 717.64 354.00 712.20 353.77 C 710.66 354.18 709.39 355.18 708.12 356.09 C 702.87 360.18 697.79 364.51 692.45 368.48 C 686.90 373.10 678.95 369.48 673.04 373.32 C 672.24 370.43 671.09 367.47 668.49 365.74 C 662.95 362.64 657.48 358.68 650.95 358.21 C 641.30 357.52 631.65 356.84 622.01 356.02 C 616.63 355.53 611.28 354.23 606.46 351.76 C 604.98 350.84 603.57 349.84 602.15 348.85 C 603.81 347.21 605.45 345.55 607.17 343.97 C 612.55 339.09 618.49 334.77 623.03 329.03 C 634.47 314.82 647.17 301.64 658.29 287.18 C 663.89 282.32 670.29 278.56 676.40 274.41 C 684.10 269.40 691.39 263.56 700.09 260.33 C 706.95 257.50 713.70 254.41 720.52 251.48 C 725.35 249.15 730.69 251.05 735.61 252.04 C 747.12 255.19 758.94 256.73 770.72 258.46 C 781.73 260.70 793.00 261.11 804.08 262.84 C 808.48 263.36 813.30 264.68 817.45 262.42 C 823.29 259.28 829.03 255.93 834.87 252.78 C 838.90 250.64 842.96 247.35 847.82 248.04 C 856.30 249.28 864.57 251.78 873.10 252.76 C 876.25 253.17 878.89 251.03 881.35 249.39 C 893.50 240.49 905.69 231.64 917.99 222.95 C 923.85 218.78 931.22 218.12 937.86 215.81 Z"
         id="path1021" />
      <path
         fill="#7a3178"
         stroke="#7a3178"
         stroke-width="0.09375"
         opacity="1.00"
         d=" M 103.38 260.88 C 111.45 259.14 119.66 261.03 127.77 261.39 C 134.03 262.03 140.76 261.30 146.47 264.45 C 150.25 266.44 154.01 268.47 157.74 270.55 C 169.98 278.35 181.71 286.94 193.82 294.95 C 203.94 302.68 216.37 306.10 227.84 311.21 C 238.06 315.94 249.20 317.93 259.92 321.14 C 264.14 322.31 267.68 325.30 272.04 326.01 C 278.08 326.19 284.01 323.52 290.07 324.86 C 299.51 326.79 308.95 328.74 318.44 330.48 C 325.63 331.62 331.72 335.89 337.49 340.05 C 340.95 343.03 343.59 347.09 347.78 349.13 C 352.27 350.96 357.15 351.44 361.94 351.90 C 368.38 352.40 375.35 352.51 381.08 349.04 C 385.92 346.08 390.11 342.18 394.91 339.16 C 401.47 342.78 407.18 347.64 413.21 352.02 C 413.29 352.53 413.45 353.56 413.53 354.08 C 401.01 355.29 388.43 353.32 375.92 354.83 C 369.43 354.01 362.91 354.71 356.40 354.80 C 347.96 353.78 339.47 354.23 331.00 354.15 C 311.06 353.32 291.28 356.20 271.54 358.59 C 263.61 359.61 256.44 363.33 249.00 365.98 C 240.43 369.06 232.10 373.03 224.81 378.52 C 221.18 377.00 217.44 375.77 213.88 374.09 C 204.09 369.69 196.80 361.11 186.63 357.37 C 177.74 353.22 167.80 350.41 160.61 343.40 C 156.36 339.65 152.18 335.83 148.30 331.69 C 146.11 329.29 143.32 327.30 139.98 327.04 C 131.14 325.91 122.28 324.83 113.45 323.52 C 105.98 322.39 98.46 323.63 90.99 324.03 C 85.32 324.44 79.64 324.64 73.97 325.09 C 64.90 325.60 57.10 331.16 48.06 331.85 C 47.63 328.44 46.95 325.07 45.63 321.89 C 44.41 323.56 43.21 325.24 42.02 326.93 C 38.98 324.52 35.85 321.91 31.90 321.25 C 29.17 320.35 25.68 320.56 23.56 318.47 C 21.21 313.10 20.83 307.03 17.96 301.83 C 16.53 304.53 15.15 307.26 13.80 310.00 C 12.69 309.64 11.58 309.30 10.47 309.00 C 12.22 304.51 12.18 299.55 10.11 295.17 C 20.13 290.45 30.69 287.01 40.98 282.94 C 47.38 280.13 54.44 282.81 61.02 281.01 C 67.56 279.29 74.35 277.85 80.10 274.13 C 87.66 269.38 95.05 264.23 103.38 260.88 Z"
         id="path1023" />
    </g>
    <g
       style=""
       id="#f04f9bff">
      <path
         fill="#f04f9b"
         stroke="#f04f9b"
         stroke-width="0.09375"
         opacity="1.00"
         d=" M 107.80 234.15 C 116.25 234.44 124.56 236.32 133.02 236.37 C 146.66 236.46 160.30 236.17 173.94 236.47 C 188.01 237.71 201.98 239.96 216.05 241.24 C 212.57 243.80 209.19 246.51 205.85 249.25 C 199.44 245.38 192.29 240.80 184.45 242.45 C 176.08 244.89 168.66 251.93 159.41 250.31 C 151.60 247.80 144.94 242.64 137.29 239.73 C 131.61 237.84 125.74 241.77 120.06 239.91 C 115.77 238.46 111.92 236.00 107.80 234.15 Z"
         id="path1035" />
      <path
         fill="#f04f9b"
         stroke="#f04f9b"
         stroke-width="0.09375"
         opacity="1.00"
         d=" M 275.57 242.26 C 286.60 240.52 297.83 241.23 308.94 240.27 C 319.50 239.24 329.77 242.27 340.08 244.01 C 349.02 245.66 357.98 243.12 366.93 242.93 C 365.90 245.48 365.23 248.64 362.73 250.20 C 361.19 250.21 359.68 249.91 358.16 249.70 C 355.69 251.81 353.14 253.96 350.00 255.01 C 343.74 257.28 337.69 260.53 330.91 260.86 C 328.43 260.54 325.89 260.23 323.57 259.26 C 322.02 258.14 321.31 256.25 320.33 254.68 C 317.82 249.83 313.92 245.37 308.78 243.30 C 301.29 243.82 294.39 247.47 286.92 248.41 C 283.02 246.59 279.28 244.44 275.57 242.26 Z"
         id="path1037" />
      <path
         fill="#f04f9b"
         stroke="#f04f9b"
         stroke-width="0.09375"
         opacity="1.00"
         d=" M 554.85 242.33 C 560.90 241.52 566.98 239.95 573.11 240.78 C 581.06 241.76 588.92 243.33 596.87 244.23 C 601.98 244.82 606.87 242.87 611.80 241.84 C 619.14 240.11 626.68 241.53 634.06 242.16 C 629.78 244.54 628.04 249.40 624.58 252.55 C 616.10 256.10 606.26 256.17 598.50 261.54 C 595.22 263.91 591.35 265.33 587.27 265.17 C 582.10 260.09 576.12 255.96 570.31 251.67 C 565.46 248.08 560.32 244.89 554.85 242.33 Z"
         id="path1039" />
    </g>
    <g
       style=""
       id="#bb428cff">
      <path
         fill="#bb428c"
         stroke="#bb428c"
         stroke-width="0.09375"
         opacity="1.00"
         d=" M 286.92 248.41 C 294.39 247.47 301.29 243.82 308.78 243.30 C 313.92 245.37 317.82 249.83 320.33 254.68 C 321.31 256.25 322.02 258.14 323.57 259.26 C 325.89 260.23 328.43 260.54 330.91 260.86 C 332.04 263.30 332.57 266.45 334.93 268.04 C 338.69 269.07 342.71 268.37 346.46 269.49 C 350.60 273.18 352.12 278.99 356.34 282.62 C 359.99 285.16 364.54 285.74 368.60 287.40 C 374.86 289.65 379.89 294.25 384.35 299.04 C 383.85 299.12 382.85 299.28 382.35 299.36 C 376.17 298.59 370.03 296.69 364.88 293.11 C 356.69 287.36 349.49 280.18 340.65 275.37 C 322.79 266.29 305.00 257.06 286.92 248.41 Z"
         id="path1042" />
    </g>
    <g
       style=""
       id="#8f367dff">
      <path
         fill="#8f367d"
         stroke="#8f367d"
         stroke-width="0.09375"
         opacity="1.00"
         d=" M 0.00 243.29 C 3.21 245.52 6.34 248.07 10.05 249.41 C 14.46 249.02 18.39 246.34 22.88 246.28 C 28.70 246.21 34.03 248.84 39.51 250.41 C 45.52 252.14 51.54 249.43 57.02 247.20 C 62.37 244.18 68.71 244.68 74.27 246.81 C 84.41 250.50 94.24 255.13 103.38 260.88 C 95.05 264.23 87.66 269.38 80.10 274.13 C 74.35 277.85 67.56 279.29 61.02 281.01 C 54.44 282.81 47.38 280.13 40.98 282.94 C 30.69 287.01 20.13 290.45 10.11 295.17 C 9.47 293.62 8.78 292.09 8.09 290.57 C 7.22 292.64 6.35 294.71 5.51 296.80 C 4.81 295.27 4.10 293.74 3.40 292.22 C 2.19 294.95 0.97 297.68 0.00 300.51 L 0.00 243.29 Z"
         id="path1045" />
    </g>
    <g
       style=""
       id="#662d72ff">
      <path
         fill="#662d72"
         stroke="#662d72"
         stroke-width="0.09375"
         opacity="1.00"
         d=" M 952.77 284.77 C 955.47 283.11 957.79 280.92 960.00 278.66 L 960.00 335.30 C 957.10 341.50 955.50 348.22 952.27 354.27 C 950.43 349.70 948.87 345.02 946.95 340.49 C 942.43 349.54 940.59 359.65 935.98 368.66 C 934.49 365.48 933.16 362.23 931.96 358.94 C 931.14 359.11 930.34 359.28 929.55 359.46 C 924.71 347.69 922.04 335.15 916.95 323.49 C 913.65 330.10 911.88 337.30 909.24 344.16 C 905.70 353.58 903.22 363.39 898.90 372.49 C 896.89 368.11 895.31 363.55 893.71 359.01 C 892.17 362.58 890.78 366.21 889.50 369.88 C 888.16 367.90 886.83 365.91 885.50 363.94 C 881.44 372.00 879.84 381.00 875.96 389.14 C 874.69 386.40 873.46 383.64 872.24 380.89 C 871.25 382.11 870.28 383.35 869.31 384.58 C 868.48 383.06 867.65 381.56 866.83 380.05 C 865.66 381.98 864.46 383.90 863.30 385.84 C 862.16 382.85 861.01 379.86 859.80 376.89 C 858.04 380.98 856.41 385.13 854.70 389.25 C 852.02 383.56 850.69 377.34 847.84 371.73 C 844.71 377.61 843.70 384.36 840.37 390.16 C 838.19 384.73 836.82 379.00 834.22 373.75 C 830.56 380.84 829.21 388.82 825.62 395.94 C 824.35 393.18 823.02 390.46 821.52 387.83 C 819.78 392.19 818.31 396.65 816.60 401.02 C 814.10 395.64 812.74 389.83 810.21 384.47 C 808.74 387.15 807.29 389.85 805.81 392.53 C 803.73 387.53 802.27 382.30 800.04 377.37 C 796.22 384.61 794.64 392.75 790.98 400.06 C 789.61 397.19 788.28 394.31 786.91 391.45 C 784.33 396.82 782.85 402.62 780.41 408.04 C 778.15 402.37 776.54 396.48 774.29 390.82 C 773.29 392.01 772.31 393.21 771.33 394.42 C 770.47 393.68 769.61 392.95 768.76 392.23 C 766.80 396.80 765.07 401.46 763.26 406.10 C 762.20 404.82 761.16 403.54 760.12 402.27 C 757.93 408.46 756.09 414.78 753.46 420.81 C 752.49 418.95 751.54 417.10 750.61 415.25 C 745.19 416.43 744.01 422.37 741.27 426.36 C 738.21 422.35 735.28 418.25 732.25 414.23 C 731.05 417.64 729.71 421.00 728.16 424.27 C 726.32 419.76 724.78 415.13 722.82 410.66 C 720.21 415.40 719.78 421.40 715.55 425.14 C 713.02 421.23 710.84 417.11 708.74 412.97 C 706.96 417.11 705.33 421.32 703.98 425.62 C 702.02 426.02 700.09 426.44 698.16 426.90 C 697.44 426.48 696.74 426.06 696.05 425.65 C 691.78 427.92 688.87 431.85 685.22 434.88 C 686.03 427.58 690.36 420.40 688.17 413.00 C 687.16 409.93 685.81 406.98 684.49 404.04 C 682.50 400.85 679.31 398.79 676.28 396.72 C 671.42 393.54 668.58 388.33 665.37 383.68 C 664.62 382.12 663.87 380.57 663.12 379.02 C 666.40 377.07 669.67 375.11 673.04 373.32 C 678.95 369.48 686.90 373.10 692.45 368.48 C 697.79 364.51 702.87 360.18 708.12 356.09 C 709.39 355.18 710.66 354.18 712.20 353.77 C 717.64 354.00 722.80 358.63 728.31 356.38 C 736.69 352.40 743.46 345.38 752.40 342.50 C 758.37 341.01 764.41 339.71 770.46 338.58 C 774.83 337.67 778.39 342.86 782.71 340.85 C 791.18 337.43 799.47 333.54 807.85 329.87 C 816.54 326.12 826.27 329.98 835.16 327.17 C 839.53 325.78 843.63 323.67 847.86 321.90 C 857.41 317.86 867.05 314.01 876.36 309.41 C 884.86 305.39 892.82 300.22 901.54 296.69 C 909.75 294.92 917.60 299.98 925.80 299.72 C 931.02 296.87 934.62 291.88 939.27 288.27 C 943.01 284.92 948.65 287.27 952.77 284.77 Z"
         id="path1048" />
      <path
         fill="#662d72"
         stroke="#662d72"
         stroke-width="0.09375"
         opacity="1.00"
         d=" M 90.99 324.03 C 98.46 323.63 105.98 322.39 113.45 323.52 C 122.28 324.83 131.14 325.91 139.98 327.04 C 143.32 327.30 146.11 329.29 148.30 331.69 C 152.18 335.83 156.36 339.65 160.61 343.40 C 167.80 350.41 177.74 353.22 186.63 357.37 C 196.80 361.11 204.09 369.69 213.88 374.09 C 217.44 375.77 221.18 377.00 224.81 378.52 C 227.24 380.37 228.82 383.03 230.10 385.76 C 225.65 387.29 220.68 387.86 216.78 390.67 C 216.29 393.08 216.65 395.56 216.94 397.97 C 211.77 393.49 207.35 388.26 203.02 382.99 C 200.02 379.37 198.52 374.85 196.78 370.56 C 193.64 372.86 189.57 374.86 185.63 373.41 C 180.45 371.41 175.54 368.75 170.52 366.40 C 166.84 364.71 164.39 361.41 162.06 358.25 C 160.78 358.92 159.51 359.59 158.22 360.25 C 152.82 358.17 146.86 357.86 141.65 355.23 C 139.14 354.03 137.56 351.64 135.89 349.52 C 135.00 349.75 134.10 349.98 133.20 350.22 C 131.44 347.93 129.92 345.29 127.42 343.73 C 124.58 343.85 122.06 345.46 119.24 345.69 C 117.37 345.68 115.65 344.79 113.91 344.21 C 111.90 344.89 109.86 345.52 107.88 346.30 C 106.64 345.70 105.38 345.11 104.13 344.54 C 103.18 346.08 102.24 347.62 101.30 349.18 C 97.58 349.47 93.64 349.20 90.94 346.28 C 89.33 349.50 86.91 352.24 83.53 353.63 C 82.41 352.48 81.28 351.34 80.15 350.21 C 77.20 353.81 75.14 357.99 72.83 362.00 C 71.43 364.38 68.00 367.05 65.49 364.56 C 62.15 361.50 59.70 357.61 56.63 354.31 C 53.90 351.39 53.54 347.27 52.33 343.64 C 51.16 339.62 48.76 336.01 48.06 331.85 C 57.10 331.16 64.90 325.60 73.97 325.09 C 79.64 324.64 85.32 324.44 90.99 324.03 Z"
         id="path1050" />
    </g>
    <g
       style=""
       id="#8f367eff">
      <path
         fill="#8f367e"
         stroke="#8f367e"
         stroke-width="0.09375"
         opacity="1.00"
         d=" M 623.77 296.67 C 635.24 293.37 646.75 290.21 658.29 287.18 C 647.17 301.64 634.47 314.82 623.03 329.03 C 618.49 334.77 612.55 339.09 607.17 343.97 C 586.27 341.63 565.17 341.59 544.24 339.54 C 535.31 338.56 526.27 338.48 517.42 336.83 C 513.64 335.64 509.86 334.35 506.31 332.56 C 503.07 330.93 500.24 328.39 496.62 327.63 C 487.11 325.69 477.35 326.54 467.73 325.81 C 475.06 320.97 482.66 316.06 491.36 314.15 C 495.36 313.22 499.64 311.58 503.70 313.21 C 515.06 317.73 527.86 316.46 539.43 313.42 C 549.00 311.00 558.75 309.24 568.13 306.09 C 573.45 304.42 578.75 302.67 584.08 301.02 C 590.60 298.88 597.38 301.17 604.03 300.97 C 610.87 301.06 617.29 298.49 623.77 296.67 Z"
         id="path1053" />
      <path
         fill="#8f367e"
         stroke="#8f367e"
         stroke-width="0.09375"
         opacity="1.00"
         d=" M 316.04 295.97 C 324.47 295.37 331.21 288.31 339.89 289.10 C 346.71 289.74 353.88 290.44 359.85 294.11 C 363.25 296.06 366.44 298.53 370.25 299.67 C 374.22 300.82 378.37 300.01 382.35 299.36 C 382.85 299.28 383.85 299.12 384.35 299.04 C 388.40 298.43 392.75 297.59 396.65 299.35 C 400.81 301.09 404.98 303.09 409.56 303.40 C 418.56 304.06 427.56 304.84 436.59 304.90 L 437.58 304.95 C 448.78 309.09 460.43 312.50 470.47 319.18 C 460.65 324.08 449.35 322.29 438.98 325.00 C 429.23 327.04 419.76 331.80 409.57 330.53 C 401.63 329.71 393.66 330.16 385.70 330.06 C 379.88 329.63 373.93 329.40 368.29 331.14 C 358.05 334.20 347.62 336.62 337.49 340.05 C 331.72 335.89 325.63 331.62 318.44 330.48 C 308.95 328.74 299.51 326.79 290.07 324.86 C 284.01 323.52 278.08 326.19 272.04 326.01 C 267.68 325.30 264.14 322.31 259.92 321.14 C 249.20 317.93 238.06 315.94 227.84 311.21 C 216.37 306.10 203.94 302.68 193.82 294.95 C 201.65 293.30 209.57 292.14 217.39 290.48 C 226.48 288.46 234.86 293.49 243.45 295.50 C 253.61 297.88 264.02 298.95 274.28 300.84 C 277.88 301.37 281.67 302.44 285.24 301.20 C 289.59 299.69 293.48 296.88 298.12 296.23 C 304.06 295.37 310.07 296.47 316.04 295.97 Z"
         id="path1055" />
      <path
         fill="#8f367e"
         stroke="#8f367e"
         stroke-width="0.09375"
         opacity="1.00"
         d=" M 375.92 354.83 C 388.43 353.32 401.01 355.29 413.53 354.08 C 407.53 359.00 401.47 363.91 394.72 367.81 C 388.43 363.51 383.05 357.85 375.92 354.83 Z"
         id="path1057" />
    </g>
    <g
       style=""
       id="#53286dff">
      <path
         fill="#53286d"
         stroke="#53286d"
         stroke-width="0.09375"
         opacity="1.00"
         d=" M 5.51 296.80 C 6.35 294.71 7.22 292.64 8.09 290.57 C 8.78 292.09 9.47 293.62 10.11 295.17 C 12.18 299.55 12.22 304.51 10.47 309.00 C 11.58 309.30 12.69 309.64 13.80 310.00 C 15.15 307.26 16.53 304.53 17.96 301.83 C 20.83 307.03 21.21 313.10 23.56 318.47 C 25.68 320.56 29.17 320.35 31.90 321.25 C 35.85 321.91 38.98 324.52 42.02 326.93 C 43.21 325.24 44.41 323.56 45.63 321.89 C 46.95 325.07 47.63 328.44 48.06 331.85 C 48.76 336.01 51.16 339.62 52.33 343.64 C 53.54 347.27 53.90 351.39 56.63 354.31 C 59.70 357.61 62.15 361.50 65.49 364.56 C 68.00 367.05 71.43 364.38 72.83 362.00 C 75.14 357.99 77.20 353.81 80.15 350.21 C 81.28 351.34 82.41 352.48 83.53 353.63 C 86.91 352.24 89.33 349.50 90.94 346.28 C 93.64 349.20 97.58 349.47 101.30 349.18 C 102.24 347.62 103.18 346.08 104.13 344.54 C 105.38 345.11 106.64 345.70 107.88 346.30 C 109.86 345.52 111.90 344.89 113.91 344.21 C 115.65 344.79 117.37 345.68 119.24 345.69 C 122.06 345.46 124.58 343.85 127.42 343.73 C 129.92 345.29 131.44 347.93 133.20 350.22 C 134.10 349.98 135.00 349.75 135.89 349.52 C 137.56 351.64 139.14 354.03 141.65 355.23 C 146.86 357.86 152.82 358.17 158.22 360.25 C 159.51 359.59 160.78 358.92 162.06 358.25 C 164.39 361.41 166.84 364.71 170.52 366.40 C 175.54 368.75 180.45 371.41 185.63 373.41 C 189.57 374.86 193.64 372.86 196.78 370.56 C 198.52 374.85 200.02 379.37 203.02 382.99 C 207.35 388.26 211.77 393.49 216.94 397.97 C 218.99 400.64 220.97 403.37 222.96 406.09 C 224.20 403.72 225.43 401.35 226.68 398.99 C 227.89 402.59 229.06 406.21 230.22 409.83 C 231.11 407.98 232.02 406.13 232.91 404.28 C 233.15 404.52 233.62 404.99 233.86 405.23 C 235.34 409.53 236.02 414.42 239.68 417.56 C 237.47 424.05 235.37 430.59 232.87 436.99 C 231.50 435.21 230.14 433.43 228.78 431.65 C 225.52 439.16 223.81 447.26 219.98 454.54 C 215.47 446.44 214.98 436.81 210.26 428.80 C 205.68 439.28 202.93 450.46 198.27 460.92 C 195.76 460.35 193.25 459.80 190.77 459.16 C 187.36 449.94 185.42 440.16 180.91 431.37 C 177.32 436.91 176.79 443.76 173.30 449.35 C 168.92 441.50 168.21 432.26 163.94 424.36 C 159.55 431.90 158.11 440.65 154.69 448.62 C 152.38 448.90 150.07 449.24 147.75 449.43 C 144.75 449.31 141.75 449.18 138.75 448.99 C 136.08 445.99 134.60 442.22 133.52 438.40 C 131.22 431.37 129.38 424.14 126.04 417.49 C 121.01 426.88 118.78 437.41 114.92 447.28 C 113.24 447.19 111.57 447.13 109.90 447.05 C 107.27 440.38 105.86 433.25 102.42 426.91 C 101.09 429.72 99.72 432.53 98.26 435.29 C 94.31 426.33 92.73 416.50 88.27 407.74 C 87.05 409.84 85.82 411.93 84.61 414.04 C 81.32 407.55 79.88 400.34 76.73 393.79 C 73.32 399.69 72.22 406.55 69.00 412.55 C 64.05 402.96 62.52 392.07 57.92 382.34 C 55.61 386.59 53.98 391.16 52.00 395.57 C 50.03 391.29 48.46 386.83 46.30 382.63 C 43.58 387.94 42.13 393.78 39.41 399.09 C 38.30 397.09 37.15 395.12 36.06 393.11 C 34.95 393.98 33.85 394.86 32.74 395.74 C 30.35 389.44 28.78 382.87 26.12 376.68 C 24.60 378.56 23.06 380.43 21.54 382.32 C 20.32 379.55 19.18 376.75 18.11 373.92 C 16.64 373.63 15.18 373.34 13.71 373.05 C 12.21 368.38 10.61 363.71 8.18 359.43 C 6.48 363.38 4.88 367.38 3.18 371.34 C 2.12 370.20 1.06 369.06 0.00 367.93 L 0.00 300.51 C 0.97 297.68 2.19 294.95 3.40 292.22 C 4.10 293.74 4.81 295.27 5.51 296.80 Z"
         id="path1060" />
      <path
         fill="#53286d"
         stroke="#53286d"
         stroke-width="0.09375"
         opacity="1.00"
         d=" M 340.00 458.11 C 344.27 458.72 348.54 459.75 352.07 462.36 C 350.67 467.11 349.06 471.81 346.77 476.22 C 343.45 470.61 342.07 464.21 340.00 458.11 Z"
         id="path1062" />
    </g>
    <g
       style=""
       id="#3d2768ff">
      <path
         fill="#3d2768"
         stroke="#3d2768"
         stroke-width="0.09375"
         opacity="1.00"
         d=" M 909.24 344.16 C 911.88 337.30 913.65 330.10 916.95 323.49 C 922.04 335.15 924.71 347.69 929.55 359.46 C 930.34 359.28 931.14 359.11 931.96 358.94 C 933.16 362.23 934.49 365.48 935.98 368.66 C 940.59 359.65 942.43 349.54 946.95 340.49 C 948.87 345.02 950.43 349.70 952.27 354.27 C 955.50 348.22 957.10 341.50 960.00 335.30 L 960.00 432.75 C 948.49 435.99 937.22 441.34 925.01 440.94 C 915.69 440.98 906.14 440.39 897.10 443.12 C 877.38 449.43 857.52 455.27 837.87 461.78 C 828.39 464.94 818.56 466.88 809.10 470.06 C 796.89 473.64 784.72 477.75 772.00 479.09 C 751.04 481.32 730.08 483.58 709.15 486.17 C 702.43 487.62 695.46 486.58 688.79 488.32 C 681.31 490.11 673.54 489.47 666.02 490.98 C 658.46 492.48 650.73 493.16 643.33 495.37 C 638.10 496.90 632.56 496.11 627.31 497.48 C 619.63 499.43 611.66 498.89 603.86 499.86 C 597.92 500.61 591.91 500.51 585.94 500.43 C 579.24 500.29 572.44 499.22 565.83 500.73 C 562.15 501.48 559.95 504.83 557.46 507.32 C 554.77 505.04 552.81 501.79 549.74 500.04 C 543.65 499.21 536.64 498.43 531.64 502.84 C 528.83 502.28 526.05 501.42 523.18 501.36 C 521.16 502.03 519.56 503.53 517.85 504.74 C 515.47 503.96 513.14 502.96 510.64 502.70 C 507.46 502.68 504.39 503.89 501.20 503.65 C 497.70 503.45 494.15 502.35 490.67 503.31 C 486.49 504.38 482.28 506.11 477.88 505.28 C 470.70 504.06 463.36 504.92 456.18 503.66 C 450.64 502.52 445.00 504.39 439.47 503.13 C 431.81 501.59 423.62 503.07 416.32 499.86 C 410.64 497.45 404.35 498.93 398.41 498.19 C 386.16 496.71 374.43 492.68 362.55 489.56 C 340.20 486.14 317.62 484.51 295.17 481.87 C 283.42 480.82 271.67 479.69 259.98 478.14 C 247.78 475.60 236.04 471.29 224.00 468.13 C 215.36 465.92 206.98 462.82 198.27 460.92 C 202.93 450.46 205.68 439.28 210.26 428.80 C 214.98 436.81 215.47 446.44 219.98 454.54 C 223.81 447.26 225.52 439.16 228.78 431.65 C 230.14 433.43 231.50 435.21 232.87 436.99 C 235.37 430.59 237.47 424.05 239.68 417.56 C 240.59 415.03 241.57 412.53 242.56 410.04 C 244.13 413.73 245.56 417.47 246.75 421.30 C 248.31 426.54 249.83 431.81 252.15 436.78 C 254.43 434.52 257.11 432.67 259.13 430.17 C 260.60 427.73 261.10 424.86 262.04 422.21 C 262.68 420.36 263.41 418.55 264.14 416.75 C 265.39 419.52 266.58 422.33 267.79 425.12 C 268.78 423.16 269.80 421.21 270.78 419.25 C 271.63 420.88 272.48 422.51 273.34 424.15 C 275.39 419.52 276.99 414.72 278.64 409.94 C 280.72 414.31 282.28 418.90 283.52 423.58 C 284.64 429.51 290.70 432.35 292.60 437.92 C 294.33 433.62 295.98 429.28 297.62 424.95 C 300.32 430.34 301.65 436.27 304.03 441.79 C 307.90 442.18 310.26 445.50 312.81 448.03 C 315.38 444.27 317.60 440.29 319.56 436.19 C 320.35 438.41 321.18 440.63 321.98 442.85 C 322.91 441.64 323.85 440.44 324.79 439.24 C 325.12 440.18 325.46 441.13 325.80 442.08 C 327.28 448.62 330.24 454.68 334.37 459.95 C 335.74 457.97 337.10 455.99 338.46 454.01 C 338.98 455.37 339.50 456.73 340.00 458.11 C 342.07 464.21 343.45 470.61 346.77 476.22 C 349.06 471.81 350.67 467.11 352.07 462.36 C 353.40 457.96 355.11 453.68 357.12 449.55 C 358.07 451.75 358.99 453.97 359.75 456.25 C 360.94 459.71 361.74 463.68 364.88 465.98 C 368.26 468.49 370.69 471.95 372.30 475.81 C 374.19 473.02 376.28 470.39 378.59 467.94 C 380.10 469.21 381.62 470.49 383.14 471.77 C 385.40 468.66 387.45 465.42 389.33 462.08 C 392.39 467.63 395.25 473.38 399.62 478.05 C 402.83 472.85 405.80 467.51 409.25 462.47 C 413.60 469.57 415.96 477.68 420.47 484.68 C 423.56 483.24 424.55 479.29 426.69 476.77 C 428.65 480.21 430.61 483.65 432.65 487.05 C 434.65 483.18 436.68 479.33 438.85 475.56 C 439.94 475.80 441.03 476.05 442.13 476.30 C 443.76 473.47 445.36 470.63 446.94 467.78 C 447.58 468.87 448.23 469.96 448.88 471.06 C 452.37 478.27 455.03 485.90 459.26 492.74 C 463.41 488.86 464.62 483.08 467.81 478.53 C 472.05 482.86 473.32 489.46 478.12 493.18 C 481.28 492.81 484.09 491.17 487.11 490.27 C 489.40 489.46 491.77 491.41 493.98 490.82 C 497.03 488.16 498.44 484.17 500.52 480.79 C 502.35 482.73 503.94 484.95 506.09 486.57 C 509.02 488.02 512.22 488.86 515.12 490.42 C 520.33 489.33 525.67 489.53 530.94 489.03 C 534.80 488.71 536.73 484.98 539.43 482.74 C 543.83 483.37 547.30 486.92 551.79 487.34 C 554.90 487.54 558.02 486.93 561.14 487.22 C 564.20 487.42 567.32 488.25 570.36 487.40 C 574.21 486.32 577.53 483.96 580.71 481.61 C 582.26 482.80 583.83 483.96 585.37 485.17 C 587.56 481.54 589.89 477.99 592.69 474.80 C 595.42 479.23 597.64 483.96 600.67 488.21 C 602.68 484.89 604.24 481.34 605.81 477.80 C 607.46 473.52 612.72 472.15 614.16 467.68 C 614.90 466.21 615.60 464.72 616.32 463.24 C 618.40 465.81 620.40 468.44 622.36 471.12 C 624.54 467.58 626.81 464.10 629.18 460.68 C 631.96 463.31 635.66 465.06 637.58 468.52 C 638.49 469.50 638.82 471.49 640.41 471.56 C 642.07 469.29 643.33 466.76 644.72 464.33 C 646.02 465.11 647.33 465.89 648.65 466.68 C 650.33 463.33 651.70 459.85 653.01 456.35 C 654.90 457.44 656.63 458.78 658.26 460.24 C 659.27 459.50 660.27 458.77 661.29 458.05 C 663.31 461.75 665.29 465.48 667.37 469.16 C 673.05 461.39 674.84 451.62 680.04 443.57 C 682.21 447.84 684.08 452.28 686.71 456.31 C 690.53 449.15 691.89 440.99 695.69 433.82 C 696.89 435.26 698.11 436.71 699.33 438.16 C 701.19 434.10 702.72 429.90 703.98 425.62 C 705.33 421.32 706.96 417.11 708.74 412.97 C 710.84 417.11 713.02 421.23 715.55 425.14 C 719.78 421.40 720.21 415.40 722.82 410.66 C 724.78 415.13 726.32 419.76 728.16 424.27 C 729.71 421.00 731.05 417.64 732.25 414.23 C 735.28 418.25 738.21 422.35 741.27 426.36 C 744.01 422.37 745.19 416.43 750.61 415.25 C 751.54 417.10 752.49 418.95 753.46 420.81 C 756.09 414.78 757.93 408.46 760.12 402.27 C 761.16 403.54 762.20 404.82 763.26 406.10 C 765.07 401.46 766.80 396.80 768.76 392.23 C 769.61 392.95 770.47 393.68 771.33 394.42 C 772.31 393.21 773.29 392.01 774.29 390.82 C 776.54 396.48 778.15 402.37 780.41 408.04 C 782.85 402.62 784.33 396.82 786.91 391.45 C 788.28 394.31 789.61 397.19 790.98 400.06 C 794.64 392.75 796.22 384.61 800.04 377.37 C 802.27 382.30 803.73 387.53 805.81 392.53 C 807.29 389.85 808.74 387.15 810.21 384.47 C 812.74 389.83 814.10 395.64 816.60 401.02 C 818.31 396.65 819.78 392.19 821.52 387.83 C 823.02 390.46 824.35 393.18 825.62 395.94 C 829.21 388.82 830.56 380.84 834.22 373.75 C 836.82 379.00 838.19 384.73 840.37 390.16 C 843.70 384.36 844.71 377.61 847.84 371.73 C 850.69 377.34 852.02 383.56 854.70 389.25 C 856.41 385.13 858.04 380.98 859.80 376.89 C 861.01 379.86 862.16 382.85 863.30 385.84 C 864.46 383.90 865.66 381.98 866.83 380.05 C 867.65 381.56 868.48 383.06 869.31 384.58 C 870.28 383.35 871.25 382.11 872.24 380.89 C 873.46 383.64 874.69 386.40 875.96 389.14 C 879.84 381.00 881.44 372.00 885.50 363.94 C 886.83 365.91 888.16 367.90 889.50 369.88 C 890.78 366.21 892.17 362.58 893.71 359.01 C 895.31 363.55 896.89 368.11 898.90 372.49 C 903.22 363.39 905.70 353.58 909.24 344.16 Z"
         id="path1065" />
      <path
         fill="#3d2768"
         stroke="#3d2768"
         stroke-width="0.09375"
         opacity="1.00"
         d=" M 3.18 371.34 C 4.88 367.38 6.48 363.38 8.18 359.43 C 10.61 363.71 12.21 368.38 13.71 373.05 C 15.18 373.34 16.64 373.63 18.11 373.92 C 19.18 376.75 20.32 379.55 21.54 382.32 C 23.06 380.43 24.60 378.56 26.12 376.68 C 28.78 382.87 30.35 389.44 32.74 395.74 C 33.85 394.86 34.95 393.98 36.06 393.11 C 37.15 395.12 38.30 397.09 39.41 399.09 C 42.13 393.78 43.58 387.94 46.30 382.63 C 48.46 386.83 50.03 391.29 52.00 395.57 C 53.98 391.16 55.61 386.59 57.92 382.34 C 62.52 392.07 64.05 402.96 69.00 412.55 C 72.22 406.55 73.32 399.69 76.73 393.79 C 79.88 400.34 81.32 407.55 84.61 414.04 C 85.82 411.93 87.05 409.84 88.27 407.74 C 92.73 416.50 94.31 426.33 98.26 435.29 C 99.72 432.53 101.09 429.72 102.42 426.91 C 105.86 433.25 107.27 440.38 109.90 447.05 C 89.80 445.76 69.69 444.58 49.58 443.49 C 39.09 442.63 28.36 442.92 18.20 439.79 C 12.19 437.95 6.01 436.69 0.00 434.86 L 0.00 367.93 C 1.06 369.06 2.12 370.20 3.18 371.34 Z"
         id="path1067" />
      <path
         fill="#3d2768"
         stroke="#3d2768"
         stroke-width="0.09375"
         opacity="1.00"
         d=" M 114.92 447.28 C 118.78 437.41 121.01 426.88 126.04 417.49 C 129.38 424.14 131.22 431.37 133.52 438.40 C 134.60 442.22 136.08 445.99 138.75 448.99 C 130.82 448.19 122.86 447.82 114.92 447.28 Z"
         id="path1069" />
      <path
         fill="#3d2768"
         stroke="#3d2768"
         stroke-width="0.09375"
         opacity="1.00"
         d=" M 154.69 448.62 C 158.11 440.65 159.55 431.90 163.94 424.36 C 168.21 432.26 168.92 441.50 173.30 449.35 C 176.79 443.76 177.32 436.91 180.91 431.37 C 185.42 440.16 187.36 449.94 190.77 459.16 C 182.51 456.88 174.35 454.25 166.14 451.80 C 160.18 449.98 153.90 450.02 147.75 449.43 C 150.07 449.24 152.38 448.90 154.69 448.62 Z"
         id="path1071" />
    </g>
    <g
       style=""
       id="#52286dff">
      <path
         fill="#52286d"
         stroke="#52286d"
         stroke-width="0.09375"
         opacity="1.00"
         d=" M 258.46 415.06 C 259.65 417.44 260.84 419.83 262.04 422.21 C 261.10 424.86 260.60 427.73 259.13 430.17 C 257.11 432.67 254.43 434.52 252.15 436.78 C 249.83 431.81 248.31 426.54 246.75 421.30 C 249.40 422.16 252.07 422.99 254.75 423.79 C 255.99 420.88 257.23 417.97 258.46 415.06 Z"
         id="path1091" />
    </g>
    <g
       style=""
       id="#53296dff">
      <path
         fill="#53296d"
         stroke="#53296d"
         stroke-width="0.09375"
         opacity="1.00"
         d=" M 685.22 434.88 C 688.87 431.85 691.78 427.92 696.05 425.65 C 696.74 426.06 697.44 426.48 698.16 426.90 C 700.09 426.44 702.02 426.02 703.98 425.62 C 702.72 429.90 701.19 434.10 699.33 438.16 C 698.11 436.71 696.89 435.26 695.69 433.82 C 691.89 440.99 690.53 449.15 686.71 456.31 C 684.08 452.28 682.21 447.84 680.04 443.57 C 674.84 451.62 673.05 461.39 667.37 469.16 C 665.29 465.48 663.31 461.75 661.29 458.05 C 660.27 458.77 659.27 459.50 658.26 460.24 C 656.63 458.78 654.90 457.44 653.01 456.35 L 653.23 455.83 C 658.47 451.71 666.05 450.51 669.34 444.20 C 670.52 444.19 671.71 444.19 672.91 444.19 C 673.46 443.26 674.04 442.33 674.64 441.43 C 677.59 438.49 680.88 435.34 685.22 434.88 Z"
         id="path1094" />
    </g>
    <g
       style=""
       id="#272262ff">
      <path
         fill="#272262"
         stroke="#272262"
         stroke-width="0.09375"
         opacity="1.00"
         d=" M 925.01 440.94 C 937.22 441.34 948.49 435.99 960.00 432.75 L 960.00 540.00 L 0.00 540.00 L 0.00 434.86 C 6.01 436.69 12.19 437.95 18.20 439.79 C 28.36 442.92 39.09 442.63 49.58 443.49 C 69.69 444.58 89.80 445.76 109.90 447.05 C 111.57 447.13 113.24 447.19 114.92 447.28 C 122.86 447.82 130.82 448.19 138.75 448.99 C 141.75 449.18 144.75 449.31 147.75 449.43 C 153.90 450.02 160.18 449.98 166.14 451.80 C 174.35 454.25 182.51 456.88 190.77 459.16 C 193.25 459.80 195.76 460.35 198.27 460.92 C 206.98 462.82 215.36 465.92 224.00 468.13 C 236.04 471.29 247.78 475.60 259.98 478.14 C 271.67 479.69 283.42 480.82 295.17 481.87 C 317.62 484.51 340.20 486.14 362.55 489.56 C 374.43 492.68 386.16 496.71 398.41 498.19 C 404.35 498.93 410.64 497.45 416.32 499.86 C 423.62 503.07 431.81 501.59 439.47 503.13 C 445.00 504.39 450.64 502.52 456.18 503.66 C 463.36 504.92 470.70 504.06 477.88 505.28 C 482.28 506.11 486.49 504.38 490.67 503.31 C 494.15 502.35 497.70 503.45 501.20 503.65 C 504.39 503.89 507.46 502.68 510.64 502.70 C 513.14 502.96 515.47 503.96 517.85 504.74 C 519.56 503.53 521.16 502.03 523.18 501.36 C 526.05 501.42 528.83 502.28 531.64 502.84 C 536.64 498.43 543.65 499.21 549.74 500.04 C 552.81 501.79 554.77 505.04 557.46 507.32 C 559.95 504.83 562.15 501.48 565.83 500.73 C 572.44 499.22 579.24 500.29 585.94 500.43 C 591.91 500.51 597.92 500.61 603.86 499.86 C 611.66 498.89 619.63 499.43 627.31 497.48 C 632.56 496.11 638.10 496.90 643.33 495.37 C 650.73 493.16 658.46 492.48 666.02 490.98 C 673.54 489.47 681.31 490.11 688.79 488.32 C 695.46 486.58 702.43 487.62 709.15 486.17 C 730.08 483.58 751.04 481.32 772.00 479.09 C 784.72 477.75 796.89 473.64 809.10 470.06 C 818.56 466.88 828.39 464.94 837.87 461.78 C 857.52 455.27 877.38 449.43 897.10 443.12 C 906.14 440.39 915.69 440.98 925.01 440.94 Z"
         id="path1097" />
    </g>
    <g
       style=""
       id="#51296dff">
      <path
         fill="#51296d"
         stroke="#51296d"
         stroke-width="0.09375"
         opacity="1.00"
         d=" M 509.82 470.40 C 513.04 470.26 514.06 466.62 515.64 464.39 C 517.41 466.82 518.99 469.70 521.80 471.08 C 524.38 472.02 527.15 471.17 529.78 470.94 C 532.47 472.97 535.78 473.66 539.11 473.40 C 540.46 471.36 541.86 469.34 543.24 467.31 C 544.19 468.33 545.14 469.35 546.10 470.37 C 548.54 470.06 551.13 469.27 553.54 470.17 C 556.00 471.27 557.95 473.20 560.01 474.89 C 561.11 473.79 562.21 472.68 563.31 471.58 C 565.06 472.72 566.85 473.82 568.63 474.94 C 570.50 473.68 572.25 471.87 574.61 471.66 C 578.08 471.37 581.45 472.40 584.82 473.03 C 590.04 474.14 595.43 473.78 600.66 473.02 C 605.65 472.49 609.06 467.85 614.16 467.68 C 612.72 472.15 607.46 473.52 605.81 477.80 C 604.24 481.34 602.68 484.89 600.67 488.21 C 597.64 483.96 595.42 479.23 592.69 474.80 C 589.89 477.99 587.56 481.54 585.37 485.17 C 583.83 483.96 582.26 482.80 580.71 481.61 C 577.53 483.96 574.21 486.32 570.36 487.40 C 567.32 488.25 564.20 487.42 561.14 487.22 C 558.02 486.93 554.90 487.54 551.79 487.34 C 547.30 486.92 543.83 483.37 539.43 482.74 C 536.73 484.98 534.80 488.71 530.94 489.03 C 525.67 489.53 520.33 489.33 515.12 490.42 C 512.22 488.86 509.02 488.02 506.09 486.57 C 503.94 484.95 502.35 482.73 500.52 480.79 C 498.44 484.17 497.03 488.16 493.98 490.82 C 491.77 491.41 489.40 489.46 487.11 490.27 C 484.09 491.17 481.28 492.81 478.12 493.18 C 473.32 489.46 472.05 482.86 467.81 478.53 C 464.62 483.08 463.41 488.86 459.26 492.74 C 455.03 485.90 452.37 478.27 448.88 471.06 C 451.19 472.89 453.85 475.42 457.07 474.75 C 459.12 473.67 460.49 471.69 462.08 470.06 C 464.68 471.70 467.10 473.86 470.13 474.66 C 474.09 475.05 477.61 472.83 480.79 470.77 C 484.38 473.52 488.65 471.29 492.66 471.23 C 495.61 469.73 498.74 468.61 502.00 467.99 C 504.41 469.25 506.97 470.79 509.82 470.40 Z"
         id="path1106" />
    </g>
  </g>
</svg>
